# Blender 3.4.1
# www.blender.org
mtllib spalony.mtl
o Box006.005
v 0.068660 0.171905 0.017851
v 0.043816 0.171905 0.050892
v 0.071743 0.160366 0.046030
v 0.058410 0.174441 -0.000797
v 0.023055 0.174441 0.046224
v 0.042905 0.174441 -0.012455
v 0.007550 0.174441 0.034566
v 0.023944 0.171905 -0.019518
v -0.004500 0.171905 0.018313
v -0.002882 0.160366 -0.016119
v -0.009876 0.160366 -0.006817
v 0.071743 0.153679 0.046030
v 0.068660 0.161393 0.017851
v 0.058410 0.163930 -0.000797
v 0.042905 0.163930 -0.012455
v 0.023944 0.161393 -0.019518
v -0.000497 0.153679 -0.019290
v -0.009876 0.153679 -0.006817
v -0.004500 0.161393 0.018313
v 0.007550 0.163930 0.034566
v 0.023055 0.163930 0.046224
v 0.043816 0.161393 0.050892
v -0.127000 -0.000000 0.127000
v 0.127000 -0.000000 0.127000
v 0.127000 -0.000000 -0.127000
v -0.127000 -0.000000 -0.127000
v -0.127000 -0.254000 0.127000
v 0.127000 -0.254000 0.127000
v 0.127000 -0.254000 -0.127000
v -0.127000 -0.254000 -0.127000
v 0.008810 -0.028825 -0.003178
v 0.005414 -0.028825 -0.010231
v 0.005415 0.162652 -0.010158
v 0.008811 0.162652 -0.003106
v -0.002218 -0.028825 -0.011973
v -0.002217 0.162652 -0.011900
v -0.008338 -0.028825 -0.007092
v -0.008337 0.162652 -0.007020
v -0.008338 -0.028825 0.000735
v -0.008337 0.162652 0.000808
v -0.002218 -0.028825 0.005616
v -0.002217 0.162652 0.005689
v 0.005414 -0.028825 0.003874
v 0.005415 0.162652 0.003947
v -0.020423 0.107631 0.071038
v -0.047779 0.107631 0.050791
v -0.043602 0.098132 0.073752
v -0.005134 0.109719 0.062484
v -0.044065 0.109719 0.033670
v 0.004368 0.109719 0.049647
v -0.034563 0.109719 0.020833
v 0.010064 0.107631 0.033994
v -0.021257 0.107631 0.010812
v 0.007099 0.098132 0.011930
v -0.000602 0.098132 0.006229
v -0.043602 0.092626 0.073752
v -0.020423 0.098977 0.071038
v -0.005134 0.101065 0.062484
v 0.004368 0.101065 0.049647
v 0.010064 0.098977 0.033994
v 0.009725 0.092626 0.013873
v -0.000602 0.092626 0.006229
v -0.021257 0.098977 0.010812
v -0.034563 0.101065 0.020833
v -0.044065 0.101065 0.033670
v -0.047779 0.098977 0.050791
v 0.068689 0.015716 -0.054982
v 0.088476 0.015716 -0.027291
v 0.091577 0.006217 -0.050422
v 0.051508 0.017804 -0.051555
v 0.079667 0.017804 -0.012148
v 0.038514 0.017804 -0.042270
v 0.066673 0.017804 -0.002862
v 0.028271 0.015716 -0.029133
v 0.050926 0.015716 0.002572
v 0.024294 0.006217 -0.007229
v 0.029864 0.006217 0.000567
v 0.091577 0.000711 -0.050422
v 0.068689 0.007062 -0.054982
v 0.051508 0.009150 -0.051555
v 0.038514 0.009150 -0.042270
v 0.028271 0.007062 -0.029133
v 0.022395 0.000711 -0.009887
v 0.029864 0.000711 0.000567
v 0.050926 0.007062 0.002572
v 0.066673 0.009150 -0.002862
v 0.079667 0.009150 -0.012148
v 0.088476 0.007062 -0.027291
v -0.062232 0.177515 -0.026190
v -0.032979 0.177515 -0.055400
v -0.061312 0.165976 -0.054522
v -0.054713 0.180051 -0.006284
v -0.013083 0.180051 -0.047852
v -0.041006 0.180051 0.007444
v 0.000624 0.180051 -0.034125
v -0.023231 0.177515 0.017108
v 0.010262 0.177515 -0.016335
v 0.003807 0.165976 0.017525
v 0.012042 0.165976 0.009302
v -0.061312 0.159288 -0.054522
v -0.062232 0.167003 -0.026190
v -0.054713 0.169539 -0.006284
v -0.041006 0.169539 0.007444
v -0.023231 0.167003 0.017108
v 0.000999 0.159288 0.020329
v 0.012042 0.159288 0.009302
v 0.010262 0.167003 -0.016335
v 0.000624 0.169539 -0.034125
v -0.013083 0.169539 -0.047852
v -0.032979 0.167003 -0.055400
v -0.123286 0.009582 0.007122
v -0.111218 0.002298 -0.031739
v -0.134741 -0.008049 -0.015118
v -0.107578 0.016343 0.020037
v -0.090403 0.005977 -0.035268
v -0.089099 0.019093 0.025260
v -0.071924 0.008727 -0.030044
v -0.068724 0.018358 0.025609
v -0.054906 0.010019 -0.018885
v -0.043755 0.006549 0.015537
v -0.040357 0.004499 0.004597
v -0.134167 -0.014564 -0.013719
v -0.122385 -0.000658 0.009322
v -0.106676 0.006104 0.022236
v -0.088197 0.008853 0.027459
v -0.067822 0.008119 0.027808
v -0.044340 0.000734 0.020667
v -0.039783 -0.002016 0.005996
v -0.054004 -0.000220 -0.016686
v -0.071022 -0.001512 -0.027845
v -0.089501 -0.004262 -0.033069
v -0.110316 -0.007941 -0.029540
v 0.038513 0.013539 0.070641
v -0.002193 0.018446 0.075923
v 0.019665 0.006497 0.093704
v 0.044679 0.013101 0.050122
v -0.013250 0.020084 0.057639
v 0.041969 0.011195 0.031008
v -0.015960 0.018178 0.038525
v 0.033333 0.007465 0.012917
v -0.013273 0.013084 0.018964
v 0.010868 -0.003605 -0.002483
v -0.000592 -0.002224 -0.000996
v 0.018967 -0.000110 0.094462
v 0.037415 0.003153 0.071833
v 0.043581 0.002715 0.051314
v 0.040871 0.000809 0.032200
v 0.032235 -0.002921 0.014108
v 0.014077 -0.010684 -0.002232
v -0.001290 -0.008832 -0.000238
v -0.014371 0.002697 0.020155
v -0.017057 0.007792 0.039716
v -0.014347 0.009698 0.058830
v -0.003291 0.008060 0.077115
v 0.022434 0.173255 -0.070532
v 0.057866 0.178163 -0.049810
v 0.051452 0.166214 -0.077247
v 0.005004 0.172818 -0.058072
v 0.055428 0.179801 -0.028582
v -0.004544 0.170912 -0.041294
v 0.045880 0.177895 -0.011804
v -0.008780 0.167182 -0.021699
v 0.031788 0.172800 0.002027
v -0.000429 0.156112 0.004225
v 0.009547 0.157493 0.010059
v 0.052468 0.159607 -0.077419
v 0.024031 0.162869 -0.070803
v 0.006601 0.162431 -0.058343
v -0.002947 0.160526 -0.041565
v -0.007183 0.156796 -0.021970
v -0.002813 0.149033 0.002064
v 0.010563 0.150885 0.009887
v 0.033385 0.162414 0.001756
v 0.047477 0.167509 -0.012075
v 0.057025 0.169415 -0.028853
v 0.059463 0.167777 -0.050081
vn 0.1967 0.9693 0.1479
vn 0.4086 0.8595 0.3072
vn 0.0439 0.9985 0.0330
vn -0.0467 0.9983 -0.0351
vn -0.2050 0.9665 -0.1541
vn -0.2092 0.9651 -0.1573
vn -0.4086 0.8595 -0.3072
vn 0.9941 -0.0000 -0.1088
vn 0.9604 -0.0000 -0.2787
vn 0.9425 -0.0000 -0.3342
vn 0.7606 -0.0000 -0.6492
vn 0.7500 -0.0000 -0.6615
vn 0.4751 -0.0000 -0.8799
vn 0.4852 -0.0000 -0.8744
vn 0.0810 0.0947 -0.9922
vn 0.1586 0.0684 -0.9850
vn -0.1301 0.1623 -0.9781
vn -0.1302 0.1623 -0.9781
vn 0.1587 0.0684 -0.9850
vn -0.7993 -0.0000 -0.6010
vn -0.9779 -0.0000 0.2092
vn -0.9222 -0.0000 0.3867
vn -0.8934 -0.0000 0.4493
vn -0.7134 -0.0000 0.7008
vn -0.7053 -0.0000 0.7090
vn -0.4124 -0.0000 0.9110
vn -0.4272 -0.0000 0.9042
vn -0.0011 -0.0000 1.0000
vn -0.0594 -0.0000 0.9982
vn 0.1715 -0.0000 0.9852
vn -0.0000 1.0000 -0.0000
vn -0.0000 -0.0000 1.0000
vn 1.0000 -0.0000 -0.0000
vn -0.0000 -0.0000 -1.0000
vn -1.0000 -0.0000 -0.0000
vn 1.0000 -0.0000 0.0001
vn 1.0000 -0.0000 -0.0001
vn 0.6234 0.0003 -0.7819
vn 0.6235 0.0003 -0.7818
vn -0.2225 0.0004 -0.9749
vn -0.9009 0.0002 -0.4340
vn -0.9010 0.0002 -0.4338
vn -0.9010 -0.0002 0.4338
vn -0.9009 -0.0002 0.4340
vn -0.2225 -0.0004 0.9749
vn 0.6235 -0.0003 0.7818
vn 0.6234 -0.0003 0.7819
vn -0.1464 0.9693 0.1978
vn -0.3041 0.8595 0.4109
vn -0.0327 0.9985 0.0441
vn 0.0348 0.9983 -0.0470
vn 0.1526 0.9665 -0.2062
vn 0.1557 0.9651 -0.2104
vn 0.3041 0.8595 -0.4109
vn 0.1163 -0.0000 0.9932
vn 0.2860 -0.0000 0.9582
vn 0.3414 -0.0000 0.9399
vn 0.6549 -0.0000 0.7557
vn 0.6671 -0.0000 0.7450
vn 0.8835 -0.0000 0.4685
vn 0.8780 -0.0000 0.4786
vn 0.9928 0.0947 0.0735
vn 0.9861 0.0684 0.1512
vn 0.9771 0.1623 -0.1375
vn 0.5949 -0.0000 -0.8038
vn -0.2166 -0.0000 -0.9763
vn -0.3937 -0.0000 -0.9193
vn -0.4561 -0.0000 -0.8899
vn -0.7061 -0.0000 -0.7081
vn -0.7143 -0.0000 -0.6999
vn -0.9141 -0.0000 -0.4055
vn -0.9074 -0.0000 -0.4203
vn -1.0000 -0.0000 0.0065
vn -0.9987 -0.0000 -0.0519
vn -0.9839 -0.0000 0.1790
vn 0.2002 0.9693 -0.1430
vn 0.4159 0.8595 -0.2972
vn 0.0447 0.9985 -0.0319
vn -0.0476 0.9983 0.0340
vn -0.2087 0.9665 0.1491
vn -0.2129 0.9651 0.1522
vn -0.4159 0.8595 0.2972
vn 0.1954 -0.0000 -0.9807
vn 0.0232 -0.0000 -0.9997
vn -0.0351 -0.0000 -0.9994
vn -0.3902 -0.0000 -0.9207
vn -0.4051 -0.0000 -0.9143
vn -0.6962 -0.0000 -0.7179
vn -0.6878 -0.0000 -0.7259
vn -0.9218 0.0947 -0.3759
vn -0.8916 0.0684 -0.4477
vn -0.9719 0.1623 -0.1702
vn -0.8136 -0.0000 0.5814
vn -0.0948 -0.0000 0.9955
vn 0.0913 -0.0000 0.9958
vn 0.1597 -0.0000 0.9872
vn 0.4536 -0.0000 0.8912
vn 0.4639 -0.0000 0.8859
vn 0.7447 -0.0000 0.6675
vn 0.7337 -0.0000 0.6795
vn 0.9533 -0.0000 0.3020
vn 0.9341 -0.0000 0.3570
vn 0.9911 -0.0000 0.1329
vn -0.1738 0.9693 -0.1741
vn -0.3612 0.8595 -0.3617
vn -0.0388 0.9985 -0.0389
vn 0.0413 0.9983 0.0414
vn 0.1812 0.9665 0.1815
vn 0.1849 0.9651 0.1852
vn 0.3612 0.8595 0.3617
vn -0.9995 -0.0000 -0.0324
vn -0.9901 -0.0000 0.1406
vn -0.9802 -0.0000 0.1981
vn -0.8446 -0.0000 0.5355
vn -0.8357 -0.0000 0.5491
vn -0.5944 -0.0000 0.8042
vn -0.6036 -0.0000 0.7973
vn -0.2201 0.0947 0.9709
vn -0.2959 0.0684 0.9528
vn -0.0090 0.1623 0.9867
vn 0.7066 -0.0000 0.7076
vn 0.9976 -0.0000 -0.0693
vn 0.9675 -0.0000 -0.2529
vn 0.9478 -0.0000 -0.3189
vn 0.8050 -0.0000 -0.5932
vn 0.7981 -0.0000 -0.6025
vn 0.5367 -0.0000 -0.8438
vn 0.5504 -0.0000 -0.8349
vn 0.1420 -0.0000 -0.9899
vn 0.1995 -0.0000 -0.9799
vn -0.0310 -0.0000 -0.9995
vn -0.3175 0.9093 -0.2690
vn -0.5607 0.7647 -0.3175
vn -0.1380 0.9648 -0.2237
vn -0.0300 0.9807 -0.1931
vn 0.1614 0.9779 -0.1332
vn 0.1665 0.9772 -0.1315
vn 0.4132 0.9097 -0.0422
vn -0.8944 0.0172 0.4470
vn -0.8052 0.0559 0.5904
vn -0.7696 0.0686 0.6348
vn -0.4924 0.1411 0.8588
vn -0.4783 0.1439 0.8663
vn -0.1467 0.1954 0.9697
vn -0.1581 0.1940 0.9682
vn 0.2524 0.3159 0.9146
vn 0.1795 0.2880 0.9406
vn 0.4397 0.3801 0.8137
vn 0.1795 0.2880 0.9407
vn 0.9526 0.1417 0.2693
vn 0.8451 -0.0400 -0.5330
vn 0.7328 -0.0806 -0.6757
vn 0.6845 -0.0949 -0.7228
vn 0.4307 -0.1531 -0.8894
vn 0.4203 -0.1550 -0.8941
vn 0.0774 -0.2028 -0.9761
vn 0.0936 -0.2012 -0.9751
vn -0.3381 -0.2260 -0.9136
vn -0.2829 -0.2252 -0.9324
vn -0.4948 -0.2239 -0.8397
vn 0.1356 0.9819 0.1326
vn 0.1611 0.8994 0.4063
vn 0.1119 0.9920 -0.0590
vn 0.0961 0.9806 -0.1707
vn 0.0651 0.9298 -0.3623
vn 0.0642 0.9279 -0.3672
vn 0.0183 0.7990 -0.6011
vn 0.7757 -0.0096 0.6310
vn 0.8715 -0.0360 0.4891
vn 0.8980 -0.0447 0.4378
vn 0.9915 -0.0945 0.0899
vn 0.9926 -0.0964 0.0738
vn 0.9529 -0.1320 -0.2732
vn 0.9561 -0.1311 -0.2622
vn 0.7645 -0.0586 -0.6420
vn 0.8112 -0.0829 -0.5788
vn 0.6131 0.0089 -0.7900
vn 0.8113 -0.0829 -0.5788
vn -0.1397 -0.0982 -0.9853
vn -0.8349 0.0252 -0.5498
vn -0.9206 0.0529 -0.3870
vn -0.9443 0.0627 -0.3230
vn -0.9945 0.1027 -0.0205
vn -0.9945 0.1041 -0.0091
vn -0.9306 0.1373 0.3393
vn -0.9362 0.1361 0.3241
vn -0.7038 0.1539 0.6935
vn -0.7436 0.1532 0.6508
vn -0.5720 0.1529 0.8059
vn -0.0261 0.9819 -0.1878
vn 0.1211 0.8994 -0.4200
vn -0.1247 0.9920 -0.0218
vn -0.1804 0.9806 0.0763
vn -0.2731 0.9298 0.2468
vn -0.2754 0.9279 0.2512
vn -0.3822 0.7990 0.4643
vn -0.2276 -0.0096 -0.9737
vn -0.3903 -0.0360 -0.9200
vn -0.4425 -0.0447 -0.8956
vn -0.7293 -0.0945 -0.6776
vn -0.7401 -0.0964 -0.6656
vn -0.9209 -0.1320 -0.3667
vn -0.9167 -0.1311 -0.3775
vn -0.9975 -0.0586 0.0402
vn -0.9958 -0.0829 -0.0384
vn -0.9682 0.0089 0.2499
vn -0.4922 -0.0982 0.8649
vn 0.3242 0.0252 0.9457
vn 0.4915 0.0529 0.8693
vn 0.5494 0.0627 0.8332
vn 0.7742 0.1027 0.6246
vn 0.7812 0.1041 0.6155
vn 0.9438 0.1373 0.3008
vn 0.9389 0.1361 0.3163
vn 0.9810 0.1539 -0.1180
vn 0.9864 0.1532 -0.0600
vn 0.9455 0.1529 -0.2876
vt 0.822506 0.301102
vt 0.864046 0.653147
vt 0.723647 0.242606
vt 0.825733 0.660778
vt 0.806118 0.233314
vt 0.846111 0.635715
vt 0.810379 0.352018
vt 0.880103 0.656638
vt 0.685968 0.656638
vt 0.669692 0.268772
vt 0.803405 0.664019
vt 0.777338 0.390558
vt 0.703735 0.657343
vt 0.636650 0.307313
vt 0.784398 0.660627
vt 0.730546 0.420963
vt 0.723723 0.649727
vt 0.617359 0.353989
vt 0.769274 0.650331
vt 0.652455 0.432847
vt 0.746086 0.613528
vt 0.624623 0.416379
vt 0.754145 0.615015
vt 0.845790 0.621785
vt 0.863105 0.637245
vt 0.878983 0.641619
vt 0.684848 0.641619
vt 0.702821 0.641135
vt 0.723579 0.626929
vt 0.743493 0.589878
vt 0.754561 0.594002
vt 0.770267 0.631860
vt 0.785564 0.647764
vt 0.804214 0.652727
vt 0.825685 0.647794
vt 0.000000 0.233315
vt 0.440136 0.232182
vt 0.226044 0.233315
vt 0.660204 0.232182
vt 0.226044 0.459359
vt 0.880272 0.232182
vt 0.000000 0.232182
vt 0.000000 0.459359
vt 0.220068 0.232182
vt 0.440136 0.000000
vt 0.660204 0.000000
vt 0.880272 0.000000
vt 0.000000 0.000000
vt 0.220068 0.000000
vt 0.881783 0.000256
vt 0.513591 0.566260
vt 0.901010 0.000000
vt 0.402722 0.567737
vt 0.901636 0.312364
vt 0.403343 0.877441
vt 0.882344 0.312621
vt 0.514147 0.875965
vt 0.421822 0.567482
vt 0.422591 0.877184
vt 0.439842 0.567242
vt 0.440709 0.876943
vt 0.457096 0.567012
vt 0.457965 0.876713
vt 0.475212 0.566771
vt 0.475986 0.876473
vt 0.494461 0.566515
vt 0.495087 0.876219
vt 0.615105 0.625840
vt 0.035811 0.769981
vt 0.673767 0.527157
vt 0.187017 0.771470
vt 0.000000 0.771470
vt 0.682961 0.609588
vt 0.019589 0.751420
vt 0.564170 0.613627
vt 0.050815 0.774574
vt 0.647652 0.473190
vt 0.166726 0.775508
vt 0.525645 0.580537
vt 0.068238 0.776087
vt 0.609128 0.440101
vt 0.148925 0.775010
vt 0.495279 0.533722
vt 0.088646 0.772357
vt 0.562444 0.420736
vt 0.133869 0.770371
vt 0.483487 0.455663
vt 0.110409 0.750715
vt 0.500002 0.427881
vt 0.118187 0.751028
vt 0.019589 0.743315
vt 0.035811 0.751987
vt 0.050815 0.756688
vt 0.068238 0.756641
vt 0.088646 0.750746
vt 0.107630 0.742001
vt 0.118187 0.742586
vt 0.133869 0.751796
vt 0.148925 0.756675
vt 0.166726 0.756660
vt 0.187017 0.751231
vt 0.000000 0.751231
vt 0.131618 0.665595
vt 0.551383 0.768406
vt 0.190280 0.566912
vt 0.702589 0.769894
vt 0.515572 0.769894
vt 0.199474 0.649343
vt 0.535161 0.749844
vt 0.080683 0.653382
vt 0.566387 0.772998
vt 0.164165 0.512945
vt 0.682298 0.773932
vt 0.042158 0.620292
vt 0.583810 0.774511
vt 0.125641 0.479855
vt 0.664497 0.773434
vt 0.011792 0.573477
vt 0.604218 0.770781
vt 0.078957 0.460491
vt 0.649441 0.768795
vt 0.000000 0.495417
vt 0.625981 0.749140
vt 0.016515 0.467635
vt 0.633759 0.749452
vt 0.535161 0.741739
vt 0.551383 0.750411
vt 0.566387 0.755112
vt 0.583810 0.755066
vt 0.604218 0.749170
vt 0.623202 0.740425
vt 0.633759 0.741010
vt 0.649441 0.750220
vt 0.664497 0.755100
vt 0.682298 0.755084
vt 0.702589 0.749655
vt 0.515572 0.749655
vt 0.822506 0.301102
vt 0.864046 0.653147
vt 0.723647 0.242606
vt 0.825733 0.660778
vt 0.806118 0.233314
vt 0.846111 0.635715
vt 0.810379 0.352018
vt 0.880103 0.656638
vt 0.685968 0.656638
vt 0.669692 0.268772
vt 0.803405 0.664019
vt 0.777338 0.390558
vt 0.703735 0.657343
vt 0.636650 0.307313
vt 0.784398 0.660627
vt 0.730546 0.420963
vt 0.723723 0.649727
vt 0.617359 0.353989
vt 0.769274 0.650331
vt 0.652455 0.432847
vt 0.746086 0.613528
vt 0.624623 0.416379
vt 0.754145 0.615015
vt 0.845790 0.621785
vt 0.863105 0.637245
vt 0.878983 0.641619
vt 0.684848 0.641619
vt 0.702821 0.641135
vt 0.723579 0.626929
vt 0.743493 0.589878
vt 0.754561 0.594002
vt 0.770267 0.631860
vt 0.785564 0.647764
vt 0.804214 0.652727
vt 0.825685 0.647794
vt 0.822506 0.301102
vt 0.864046 0.653147
vt 0.723647 0.242606
vt 0.825733 0.660778
vt 0.806118 0.233314
vt 0.846111 0.635715
vt 0.810379 0.352018
vt 0.880103 0.656638
vt 0.685968 0.656638
vt 0.669692 0.268772
vt 0.803405 0.664019
vt 0.777338 0.390558
vt 0.703735 0.657343
vt 0.636650 0.307313
vt 0.784398 0.660627
vt 0.730546 0.420963
vt 0.723723 0.649727
vt 0.617359 0.353989
vt 0.769274 0.650331
vt 0.652455 0.432847
vt 0.746086 0.613528
vt 0.624623 0.416379
vt 0.754145 0.615015
vt 0.845790 0.621785
vt 0.863105 0.637245
vt 0.878983 0.641619
vt 0.684848 0.641619
vt 0.702821 0.641135
vt 0.723579 0.626929
vt 0.743493 0.589878
vt 0.754561 0.594002
vt 0.770267 0.631860
vt 0.785564 0.647764
vt 0.804214 0.652727
vt 0.825685 0.647794
vt 0.822506 0.301102
vt 0.864046 0.653147
vt 0.723647 0.242606
vt 0.825733 0.660778
vt 0.806118 0.233314
vt 0.846111 0.635715
vt 0.810379 0.352018
vt 0.880103 0.656638
vt 0.685968 0.656638
vt 0.669692 0.268772
vt 0.803405 0.664019
vt 0.777338 0.390558
vt 0.703735 0.657343
vt 0.636650 0.307313
vt 0.784398 0.660627
vt 0.730546 0.420963
vt 0.723723 0.649727
vt 0.617359 0.353989
vt 0.769274 0.650331
vt 0.652455 0.432847
vt 0.746086 0.613528
vt 0.624623 0.416379
vt 0.754145 0.615015
vt 0.845790 0.621785
vt 0.863105 0.637245
vt 0.878983 0.641619
vt 0.684848 0.641619
vt 0.702821 0.641135
vt 0.723579 0.626929
vt 0.743493 0.589878
vt 0.754561 0.594002
vt 0.770267 0.631860
vt 0.785564 0.647764
vt 0.804214 0.652727
vt 0.825685 0.647794
vt 0.822506 0.301102
vt 0.864046 0.653147
vt 0.723647 0.242606
vt 0.825733 0.660778
vt 0.806118 0.233314
vt 0.846111 0.635715
vt 0.810379 0.352018
vt 0.880103 0.656638
vt 0.685968 0.656638
vt 0.669692 0.268772
vt 0.803405 0.664019
vt 0.777338 0.390558
vt 0.703735 0.657343
vt 0.636650 0.307313
vt 0.784398 0.660627
vt 0.730546 0.420963
vt 0.723723 0.649727
vt 0.617359 0.353989
vt 0.769274 0.650331
vt 0.652455 0.432847
vt 0.746086 0.613528
vt 0.624623 0.416379
vt 0.754145 0.615015
vt 0.845790 0.621785
vt 0.863105 0.637245
vt 0.878983 0.641619
vt 0.684848 0.641619
vt 0.702821 0.641135
vt 0.723579 0.626929
vt 0.743493 0.589878
vt 0.754561 0.594002
vt 0.770267 0.631860
vt 0.785564 0.647764
vt 0.804214 0.652727
vt 0.825685 0.647794
s 1
usemtl platki.008
f 1/1/1 2/3/1 3/5/2
f 2/3/1 1/1/1 4/7/3
f 4/7/3 5/10/3 2/3/1
f 5/10/3 4/7/3 6/12/4
f 6/12/4 7/14/4 5/10/3
f 7/14/4 6/12/4 8/16/5
f 8/16/5 9/18/6 7/14/4
f 9/18/6 8/16/5 10/20/7
f 10/20/7 11/22/7 9/18/6
f 3/6/8 12/24/8 13/25/9
f 13/25/9 1/2/10 3/6/8
f 1/2/10 13/25/9 14/26/11
f 14/26/11 4/8/12 1/2/10
f 4/9/12 14/27/11 15/28/13
f 15/28/13 6/13/14 4/9/12
f 6/13/14 15/28/13 16/29/15
f 16/29/15 8/17/16 6/13/14
f 8/17/16 16/29/15 17/30/17
f 17/30/18 10/21/17 8/17/19
f 10/21/20 17/30/20 18/31/20
f 18/31/20 11/23/20 10/21/20
f 11/23/21 18/31/21 19/32/22
f 19/32/22 9/19/23 11/23/21
f 9/19/23 19/32/22 20/33/24
f 20/33/24 7/15/25 9/19/23
f 7/15/25 20/33/24 21/34/26
f 21/34/26 5/11/27 7/15/25
f 5/11/27 21/34/26 22/35/28
f 22/35/28 2/4/29 5/11/27
f 2/4/29 22/35/28 12/24/30
f 12/24/30 3/6/30 2/4/29
usemtl podstawa.032
f 26/43/31 23/36/31 24/38/31
f 24/38/31 25/40/31 26/43/31
f 23/37/32 27/45/32 28/46/32
f 28/46/32 24/39/32 23/37/32
f 24/39/33 28/46/33 29/47/33
f 29/47/33 25/41/33 24/39/33
f 25/42/34 29/48/34 30/49/34
f 30/49/34 26/44/34 25/42/34
f 26/44/35 30/49/35 27/45/35
f 27/45/35 23/37/35 26/44/35
usemtl lsicie_lodyga.005
f 34/56/36 31/50/37 32/52/38
f 32/52/38 33/54/39 34/56/36
f 33/55/39 32/53/38 35/58/40
f 35/58/40 36/59/40 33/55/39
f 36/59/40 35/58/40 37/60/41
f 37/60/41 38/61/42 36/59/40
f 38/61/42 37/60/41 39/62/43
f 39/62/43 40/63/44 38/61/42
f 40/63/44 39/62/43 41/64/45
f 41/64/45 42/65/45 40/63/44
f 42/65/45 41/64/45 43/66/46
f 43/66/46 44/67/47 42/65/45
f 44/67/47 43/66/46 31/51/37
f 31/51/37 34/57/36 44/67/47
f 45/68/48 46/70/48 47/73/49
f 46/70/48 45/68/48 48/75/50
f 48/75/50 49/77/50 46/70/48
f 49/77/50 48/75/50 50/79/51
f 50/79/51 51/81/51 49/77/50
f 51/81/51 50/79/51 52/83/52
f 52/83/52 53/85/53 51/81/51
f 53/85/53 52/83/52 54/87/54
f 54/87/54 55/89/54 53/85/53
f 47/74/55 56/91/55 57/92/56
f 57/92/56 45/69/57 47/74/55
f 45/69/57 57/92/56 58/93/58
f 58/93/58 48/76/59 45/69/57
f 48/76/59 58/93/58 59/94/60
f 59/94/60 50/80/61 48/76/59
f 50/80/61 59/94/60 60/95/62
f 60/95/62 52/84/63 50/80/61
f 52/84/63 60/95/62 61/96/64
f 61/96/64 54/88/64 52/84/63
f 54/88/65 61/96/65 62/97/65
f 62/97/65 55/90/65 54/88/65
f 55/90/66 62/97/66 63/98/67
f 63/98/67 53/86/68 55/90/66
f 53/86/68 63/98/67 64/99/69
f 64/99/69 51/82/70 53/86/68
f 51/82/70 64/99/69 65/100/71
f 65/100/71 49/78/72 51/82/70
f 49/78/72 65/100/71 66/101/73
f 66/101/73 46/71/74 49/78/72
f 46/72/74 66/102/73 56/91/75
f 56/91/75 47/74/75 46/72/74
f 67/103/76 68/105/76 69/108/77
f 68/105/76 67/103/76 70/110/78
f 70/110/78 71/112/78 68/105/76
f 71/112/78 70/110/78 72/114/79
f 72/114/79 73/116/79 71/112/78
f 73/116/79 72/114/79 74/118/80
f 74/118/80 75/120/81 73/116/79
f 75/120/81 74/118/80 76/122/82
f 76/122/82 77/124/82 75/120/81
f 69/109/83 78/126/83 79/127/84
f 79/127/84 67/104/85 69/109/83
f 67/104/85 79/127/84 80/128/86
f 80/128/86 70/111/87 67/104/85
f 70/111/87 80/128/86 81/129/88
f 81/129/88 72/115/89 70/111/87
f 72/115/89 81/129/88 82/130/90
f 82/130/90 74/119/91 72/115/89
f 74/119/91 82/130/90 83/131/92
f 83/131/92 76/123/92 74/119/91
f 76/123/93 83/131/93 84/132/93
f 84/132/93 77/125/93 76/123/93
f 77/125/94 84/132/94 85/133/95
f 85/133/95 75/121/96 77/125/94
f 75/121/96 85/133/95 86/134/97
f 86/134/97 73/117/98 75/121/96
f 73/117/98 86/134/97 87/135/99
f 87/135/99 71/113/100 73/117/98
f 71/113/100 87/135/99 88/136/101
f 88/136/101 68/106/102 71/113/100
f 68/107/102 88/137/101 78/126/103
f 78/126/103 69/109/103 68/107/102
usemtl platki.005
f 89/138/104 90/140/104 91/142/105
f 90/140/104 89/138/104 92/144/106
f 92/144/106 93/147/106 90/140/104
f 93/147/106 92/144/106 94/149/107
f 94/149/107 95/151/107 93/147/106
f 95/151/107 94/149/107 96/153/108
f 96/153/108 97/155/109 95/151/107
f 97/155/109 96/153/108 98/157/110
f 98/157/110 99/159/110 97/155/109
f 91/143/111 100/161/111 101/162/112
f 101/162/112 89/139/113 91/143/111
f 89/139/113 101/162/112 102/163/114
f 102/163/114 92/145/115 89/139/113
f 92/146/115 102/164/114 103/165/116
f 103/165/116 94/150/117 92/146/115
f 94/150/117 103/165/116 104/166/118
f 104/166/118 96/154/119 94/150/117
f 96/154/119 104/166/118 105/167/120
f 105/167/120 98/158/120 96/154/119
f 98/158/121 105/167/121 106/168/121
f 106/168/121 99/160/121 98/158/121
f 99/160/122 106/168/122 107/169/123
f 107/169/123 97/156/124 99/160/122
f 97/156/124 107/169/123 108/170/125
f 108/170/125 95/152/126 97/156/124
f 95/152/126 108/170/125 109/171/127
f 109/171/127 93/148/128 95/152/126
f 93/148/128 109/171/127 110/172/129
f 110/172/129 90/141/130 93/148/128
f 90/141/130 110/172/129 100/161/131
f 100/161/131 91/143/131 90/141/130
usemtl platki.006
f 111/173/132 112/175/132 113/177/133
f 112/175/132 111/173/132 114/179/134
f 114/179/134 115/182/134 112/175/132
f 115/182/134 114/179/134 116/184/135
f 116/184/135 117/186/135 115/182/134
f 117/186/135 116/184/135 118/188/136
f 118/188/136 119/190/137 117/186/135
f 119/190/137 118/188/136 120/192/138
f 120/192/138 121/194/138 119/190/137
f 113/178/139 122/196/139 123/197/140
f 123/197/140 111/174/141 113/178/139
f 111/174/141 123/197/140 124/198/142
f 124/198/142 114/180/143 111/174/141
f 114/181/143 124/199/142 125/200/144
f 125/200/144 116/185/145 114/181/143
f 116/185/145 125/200/144 126/201/146
f 126/201/146 118/189/147 116/185/145
f 118/189/147 126/201/146 127/202/148
f 127/202/148 120/193/148 118/189/149
f 120/193/150 127/202/150 128/203/150
f 128/203/150 121/195/150 120/193/150
f 121/195/151 128/203/151 129/204/152
f 129/204/152 119/191/153 121/195/151
f 119/191/153 129/204/152 130/205/154
f 130/205/154 117/187/155 119/191/153
f 117/187/155 130/205/154 131/206/156
f 131/206/156 115/183/157 117/187/155
f 115/183/157 131/206/156 132/207/158
f 132/207/158 112/176/159 115/183/157
f 112/176/159 132/207/158 122/196/160
f 122/196/160 113/178/160 112/176/159
usemtl platki.007
f 133/208/161 134/210/161 135/212/162
f 134/210/161 133/208/161 136/214/163
f 136/214/163 137/217/163 134/210/161
f 137/217/163 136/214/163 138/219/164
f 138/219/164 139/221/164 137/217/163
f 139/221/164 138/219/164 140/223/165
f 140/223/165 141/225/166 139/221/164
f 141/225/166 140/223/165 142/227/167
f 142/227/167 143/229/167 141/225/166
f 135/213/168 144/231/168 145/232/169
f 145/232/169 133/209/170 135/213/168
f 133/209/170 145/232/169 146/233/171
f 146/233/171 136/215/172 133/209/170
f 136/216/172 146/234/171 147/235/173
f 147/235/173 138/220/174 136/216/172
f 138/220/174 147/235/173 148/236/175
f 148/236/175 140/224/176 138/220/174
f 140/224/176 148/236/175 149/237/177
f 149/237/177 142/228/177 140/224/178
f 142/228/179 149/237/179 150/238/179
f 150/238/179 143/230/179 142/228/179
f 143/230/180 150/238/180 151/239/181
f 151/239/181 141/226/182 143/230/180
f 141/226/182 151/239/181 152/240/183
f 152/240/183 139/222/184 141/226/182
f 139/222/184 152/240/183 153/241/185
f 153/241/185 137/218/186 139/222/184
f 137/218/186 153/241/185 154/242/187
f 154/242/187 134/211/188 137/218/186
f 134/211/188 154/242/187 144/231/189
f 144/231/189 135/213/189 134/211/188
usemtl platki.009
f 155/243/190 156/245/190 157/247/191
f 156/245/190 155/243/190 158/249/192
f 158/249/192 159/252/192 156/245/190
f 159/252/192 158/249/192 160/254/193
f 160/254/193 161/256/193 159/252/192
f 161/256/193 160/254/193 162/258/194
f 162/258/194 163/260/195 161/256/193
f 163/260/195 162/258/194 164/262/196
f 164/262/196 165/264/196 163/260/195
f 157/248/197 166/266/197 167/267/198
f 167/267/198 155/244/199 157/248/197
f 155/244/199 167/267/198 168/268/200
f 168/268/200 158/250/201 155/244/199
f 158/251/201 168/269/200 169/270/202
f 169/270/202 160/255/203 158/251/201
f 160/255/203 169/270/202 170/271/204
f 170/271/204 162/259/205 160/255/203
f 162/259/205 170/271/204 171/272/206
f 171/272/206 164/263/206 162/259/205
f 164/263/207 171/272/207 172/273/207
f 172/273/207 165/265/207 164/263/207
f 165/265/208 172/273/208 173/274/209
f 173/274/209 163/261/210 165/265/208
f 163/261/210 173/274/209 174/275/211
f 174/275/211 161/257/212 163/261/210
f 161/257/212 174/275/211 175/276/213
f 175/276/213 159/253/214 161/257/212
f 159/253/214 175/276/213 176/277/215
f 176/277/215 156/246/216 159/253/214
f 156/246/216 176/277/215 166/266/217
f 166/266/217 157/248/217 156/246/216
